<?xml version="1.0" encoding="UTF-8" standalone="no"?>
<!-- Created with Inkscape (http://www.inkscape.org/) -->

<svg
   xmlns:dc="http://purl.org/dc/elements/1.1/"
   xmlns:cc="http://creativecommons.org/ns#"
   xmlns:rdf="http://www.w3.org/1999/02/22-rdf-syntax-ns#"
   xmlns:svg="http://www.w3.org/2000/svg"
   xmlns="http://www.w3.org/2000/svg"
   xmlns:sodipodi="http://sodipodi.sourceforge.net/DTD/sodipodi-0.dtd"
   xmlns:inkscape="http://www.inkscape.org/namespaces/inkscape"
   width="105mm"
   height="90.300003mm"
   viewBox="0 0 372.04703 319.96087"
   id="svg5872"
   version="1.1"
   inkscape:version="0.91 r13725"
   sodipodi:docname="logo.svg">
  <defs
     id="defs5874" />
  <sodipodi:namedview
     id="base"
     pagecolor="#ffffff"
     bordercolor="#666666"
     borderopacity="1.0"
     inkscape:pageopacity="0.0"
     inkscape:pageshadow="2"
     inkscape:zoom="0.7"
     inkscape:cx="-111.32932"
     inkscape:cy="240.63521"
     inkscape:document-units="px"
     inkscape:current-layer="layer1"
     showgrid="false"
     inkscape:window-width="1920"
     inkscape:window-height="1057"
     inkscape:window-x="-8"
     inkscape:window-y="-8"
     inkscape:window-maximized="1" />
  <metadata
     id="metadata5877">
    <rdf:RDF>
      <cc:Work
         rdf:about="">
        <dc:format>image/svg+xml</dc:format>
        <dc:type
           rdf:resource="http://purl.org/dc/dcmitype/StillImage" />
        <dc:title></dc:title>
      </cc:Work>
    </rdf:RDF>
  </metadata>
  <g
     inkscape:label="Layer 1"
     inkscape:groupmode="layer"
     id="layer1"
     transform="translate(0,-732.40245)">
    <path
       style="opacity:1;fill:#000000;fill-opacity:1;fill-rule:evenodd;stroke:none;stroke-width:1.05299997;stroke-linecap:round;stroke-linejoin:round;stroke-miterlimit:4;stroke-dasharray:none;stroke-opacity:1"
       d="m 186.01067,733.07067 -7.14752,12.2529 -7.14753,12.25291 0,0.008 -7.14279,12.24645 -7.14753,12.25291 -0.008,0 0,0.008 -7.14279,12.24645 -7.14753,12.25291 -0.008,0 0.008,0.008 -7.14434,12.2449 -7.14753,12.2529 0,0.008 -7.14271,12.24646 -7.14753,12.2529 0,0 -0.008,0 0.008,0.008 -7.14434,12.24645 -7.14753,12.25291 -0.0131,0 0.008,0.008 -7.14271,12.2449 -7.14917,12.25291 -0.0114,0 0,0.008 -7.14434,12.24645 -7.14753,12.2529 -0.008,0 0,0.008 -7.14279,12.24646 -7.14753,12.2529 -0.0131,0 0.008,0.008 -7.14435,12.24645 -7.14753,12.25291 -0.0204,0 0.008,0.008 -7.14271,12.2449 -7.14753,12.2529 0,0 0.008,0.01 -7.14434,12.2465 -7.14753,12.2529 0.0163,0 0,0.01 -7.1427096,12.2464 -7.14753005,12.2529 14.29505965,0 14.23436,0 0.0604,0 14.23436,0 14.29669,0 0,-0.01 7.14271,-12.2465 7.14753,-12.2529 0.0163,0 -0.008,-0.01 7.14434,-12.2466 7.14752,-12.2529 -0.0302,0 -0.008,-0.01 7.14435,-12.24651 7.14752,-12.25291 0.0719,0 -0.008,-0.008 7.14426,-12.24654 7.14753,-12.25291 -0.0384,0 0,-0.008 7.14271,-12.24654 7.14752,-12.25291 0.04,0 -0.008,-0.008 7.14435,-12.24654 7.14752,-12.25291 -0.0204,0 0,-0.008 7.14271,-12.24654 7.14753,-12.25291 0.0604,0 -0.008,-0.008 7.14434,-12.24654 7.14753,-12.25291 0.0147,0 -0.008,-0.008 7.14434,-12.24499 7.14753,-12.2529 -0.0523,0 -0.008,-0.008 7.14434,-12.24654 7.14753,-12.2529 0.0384,0 0,-0.008 7.1428,-12.24654 7.14752,-12.2529 -0.0237,0 -7.14753,-12.25291 -7.12205,-12.20822 0.0253,-0.0449 -7.14753,-12.25291 -7.14753,-12.2529 z m 42.74958,73.51744 -7.14753,12.2529 -7.14753,12.25291 0.0506,0 0.008,0.008 -7.14434,12.24645 -7.14753,12.25291 0.008,0 0,0.008 -7.14271,12.24645 -7.14753,12.25291 -0.0131,0 0.008,0.008 -7.14271,12.24491 -7.14753,12.2529 -0.0335,0 0,0.008 -7.14279,12.24645 -7.14753,12.25291 -0.0555,0 0,0.008 -7.14271,12.24645 -7.14753,12.25291 0.04,0 0,0.008 -7.14279,12.24645 -7.14752,12.25291 14.29505,0 14.29506,0 14.23445,0 14.29505,0 14.28395,0 14.29661,0 -0.008,-0.008 7.14435,-12.24498 7.14753,-12.25291 0.0131,0 0,-0.008 7.14271,-12.24653 7.11723,-12.20022 7.11722,12.20022 7.13797,12.23697 -0.01,0.0155 0.008,0 7.14753,12.25291 7.13789,12.23698 -0.01,0.0155 -0.0506,0 7.14753,12.2529 7.13634,12.23543 -0.01,0.017 0,0 -14.23608,0 -14.28705,0 -14.29506,0 -14.28386,0 -14.29506,0 -14.23608,0 -14.29506,0 -14.26794,0 -14.29505,0 -14.23437,0 -14.29506,0 -14.29669,0 0.008,0.01 -7.14434,12.2465 -7.14753,12.2529 -0.0351,0 0,0.01 -7.1427,12.2464 -7.14753,12.2529 14.29505,0 14.29506,0 14.28705,0 14.29506,0 14.236,0 14.29506,0 14.26794,0 14.29505,0 14.23445,0 14.29506,0 14.28395,0 14.2966,0 14.28706,0 14.29505,0 14.23445,0 14.29506,0 14.26794,0 14.29505,0 14.23608,0 14.29506,0 -7.14753,-12.2529 -7.12204,-12.2098 0.0253,-0.043 -0.0163,0 -7.14753,-12.2529 -7.12041,-12.2082 0.0253,-0.045 -0.0302,0 -7.14753,-12.2529 -7.12041,-12.20822 0.0253,-0.0449 0.0196,0 -7.14753,-12.25291 -7.12205,-12.20977 0.0253,-0.0433 -0.0384,0 -7.14752,-12.2529 -7.12205,-12.20978 0.0253,-0.0433 0.008,0 -7.14752,-12.25291 -7.12197,-12.20978 0.0253,-0.0433 -0.0188,0 -7.14753,-12.25291 -7.12196,-12.20977 0.0253,-0.0433 0.0131,0 -7.14753,-12.2529 -7.12196,-12.20978 0.0253,-0.0433 -0.0384,0 -7.14753,-12.25291 -7.12204,-12.20978 0.0253,-0.0433 -0.0506,0 -7.14753,-12.25291 -7.14753,-12.2529 z m -14.31899,122.53551 -7.14435,12.24646 -7.14434,12.24498 7.14271,-12.24498 7.14598,-12.24646 z"
       id="path5605"
       inkscape:connector-curvature="0" />
  </g>
</svg>
